<?xml version="1.0" encoding="UTF-8"?>
<svg xmlns="http://www.w3.org/2000/svg" width="30pt" height="30pt" viewBox="0 0 30 30" version="1.1">
<g id="plane" transform="rotate(45)" >
<path  style=" stroke:none;fill-rule:nonzero;fill:yellow;fill-opacity:1;" d="M 28.027344 6.054688 C 29.257812 4.410156 29.996094 2.695312 30 1.472656 C 30 1.078125 29.917969 0.769531 29.769531 0.539062 C 29.753906 0.511719 29.707031 0.4375 29.632812 0.363281 C 29.554688 0.289062 29.488281 0.246094 29.472656 0.238281 C 29.230469 0.078125 28.917969 0 28.523438 0 C 27.304688 0.00390625 25.59375 0.738281 23.941406 1.972656 C 22.609375 2.96875 21.277344 4.375 19.433594 6.320312 C 19.121094 6.648438 18.789062 6.996094 18.441406 7.359375 L 14.867188 6.289062 L 14.878906 6.277344 C 15.027344 6.128906 15.113281 5.921875 15.109375 5.71875 C 15.113281 5.503906 15.023438 5.296875 14.875 5.148438 L 14.230469 4.503906 C 14.082031 4.351562 13.875 4.265625 13.664062 4.265625 C 13.449219 4.265625 13.246094 4.351562 13.097656 4.5 L 12.132812 5.46875 L 11.621094 5.316406 C 11.730469 5.175781 11.789062 5 11.789062 4.828125 C 11.789062 4.609375 11.707031 4.410156 11.554688 4.257812 L 10.90625 3.609375 C 10.757812 3.460938 10.554688 3.375 10.339844 3.375 C 10.125 3.375 9.925781 3.460938 9.777344 3.609375 L 8.890625 4.496094 L 5.257812 3.410156 C 5.175781 3.382812 5.089844 3.371094 4.996094 3.371094 C 4.738281 3.375 4.5 3.46875 4.324219 3.644531 L 3.046875 4.921875 C 2.902344 5.066406 2.820312 5.261719 2.824219 5.449219 C 2.816406 5.722656 2.96875 5.976562 3.210938 6.105469 L 10.855469 10.375 C 10.890625 10.394531 11 10.476562 11.039062 10.515625 L 13.21875 12.695312 C 11.179688 14.839844 9.363281 16.917969 7.949219 18.726562 C 7.816406 18.894531 7.691406 19.058594 7.570312 19.222656 L 1.65625 18.683594 C 1.628906 18.683594 1.597656 18.679688 1.554688 18.679688 C 1.285156 18.683594 1.019531 18.792969 0.824219 18.980469 L 0.226562 19.578125 C 0.0820312 19.722656 -0.00390625 19.914062 0 20.105469 C -0.00390625 20.390625 0.167969 20.65625 0.429688 20.773438 L 4.589844 22.746094 C 4.625 22.765625 4.71875 22.832031 4.746094 22.863281 L 5.09375 23.203125 C 4.984375 23.507812 4.929688 23.773438 4.925781 24.003906 C 4.925781 24.3125 5.027344 24.578125 5.21875 24.769531 L 5.234375 24.785156 C 5.433594 24.976562 5.6875 25.074219 6 25.074219 C 6.226562 25.070312 6.488281 25.015625 6.792969 24.90625 L 7.144531 25.257812 C 7.171875 25.285156 7.234375 25.378906 7.253906 25.414062 L 9.222656 29.5625 C 9.34375 29.828125 9.605469 30 9.886719 30 L 9.890625 30 C 10.085938 30 10.273438 29.921875 10.417969 29.777344 L 11.027344 29.167969 C 11.207031 28.976562 11.3125 28.714844 11.316406 28.4375 C 11.316406 28.402344 11.316406 28.375 11.316406 28.363281 L 10.777344 22.429688 C 10.9375 22.304688 11.101562 22.179688 11.269531 22.050781 C 13.082031 20.632812 15.164062 18.816406 17.304688 16.78125 L 19.484375 18.964844 C 19.519531 18.996094 19.601562 19.105469 19.625 19.152344 L 23.886719 26.777344 C 24.019531 27.023438 24.269531 27.175781 24.546875 27.175781 C 24.742188 27.175781 24.933594 27.097656 25.078125 26.953125 L 26.363281 25.667969 C 26.53125 25.492188 26.625 25.253906 26.628906 24.996094 C 26.628906 24.910156 26.613281 24.824219 26.59375 24.746094 L 25.503906 21.109375 L 26.390625 20.222656 C 26.539062 20.074219 26.621094 19.871094 26.621094 19.65625 C 26.621094 19.445312 26.539062 19.246094 26.390625 19.09375 L 25.742188 18.445312 C 25.59375 18.296875 25.386719 18.210938 25.175781 18.210938 C 24.996094 18.210938 24.820312 18.269531 24.683594 18.378906 L 24.53125 17.871094 L 25.5 16.902344 C 25.648438 16.753906 25.730469 16.546875 25.730469 16.335938 C 25.730469 16.121094 25.648438 15.921875 25.5 15.773438 L 24.851562 15.125 C 24.703125 14.972656 24.496094 14.886719 24.285156 14.886719 C 24.070312 14.886719 23.863281 14.976562 23.71875 15.125 L 23.710938 15.128906 L 22.640625 11.558594 C 23.007812 11.203125 23.359375 10.867188 23.695312 10.554688 C 25.632812 8.714844 27.035156 7.386719 28.027344 6.054688 Z M 28.027344 6.054688 "/>
</g>
</svg>
